<?xml version="1.0" encoding="UTF-8" standalone="no"?>
<!DOCTYPE svg PUBLIC "-//W3C//DTD SVG 1.1//EN" "http://www.w3.org/Graphics/SVG/1.1/DTD/svg11.dtd">
<svg width="100%" height="100%" viewBox="0 0 1280 800" version="1.1" xmlns="http://www.w3.org/2000/svg" xmlns:xlink="http://www.w3.org/1999/xlink" xml:space="preserve" xmlns:serif="http://www.serif.com/" style="fill-rule:evenodd;clip-rule:evenodd;stroke-linejoin:round;stroke-miterlimit:2;">
    <g transform="matrix(4.56279,0,0,4.56279,-603.818,-1083.71)">
        <g transform="matrix(6.74863,0,0,6.74863,-868.987,-1459.05)">
            <path d="M151.108,254.842L151.108,253.752L152.198,253.752L152.198,252.662L157.766,252.662L157.766,253.752L158.856,253.752L158.856,254.842L159.945,254.842L159.945,262.59L158.856,262.59L158.856,263.679L157.766,263.679L157.766,264.769L152.198,264.769L152.198,263.679L151.108,263.679L151.108,262.59L150.018,262.59L150.018,254.842L151.108,254.842ZM153.344,263.623L156.619,263.623L156.619,262.533L157.709,262.533L157.709,261.443L158.799,261.443L158.799,255.988L157.709,255.988L157.709,254.898L156.619,254.898L156.619,253.808L153.344,253.808L153.344,254.898L152.254,254.898L152.254,255.988L151.164,255.988L151.164,261.443L152.254,261.443L152.254,262.533L153.344,262.533L153.344,263.623ZM155.524,262.533L154.434,262.533L154.434,261.443L153.344,261.443L153.344,255.988L154.434,255.988L154.434,254.898L155.524,254.898L155.524,255.988L156.619,255.988L156.619,261.443L155.524,261.443L155.524,262.533ZM154.49,260.297L155.473,260.297L155.473,257.135L154.49,257.135L154.49,260.297Z" style="fill:rgb(228,186,48);"/>
            <path d="M155.524,262.533L155.524,261.443L156.619,261.443L156.619,255.988L155.524,255.988L155.524,254.898L154.434,254.898L154.434,255.988L153.344,255.988L153.344,261.443L154.434,261.443L154.434,262.533L155.524,262.533ZM153.344,263.623L153.344,262.533L152.254,262.533L152.254,261.443L151.164,261.443L151.164,255.988L152.254,255.988L152.254,254.898L153.344,254.898L153.344,253.808L156.619,253.808L156.619,254.898L157.709,254.898L157.709,255.988L158.799,255.988L158.799,261.443L157.709,261.443L157.709,262.533L156.619,262.533L156.619,263.623L153.344,263.623Z" style="fill:rgb(243,224,162);fill-rule:nonzero;"/>
        </g>
        <g transform="matrix(6.74863,0,0,6.74863,-868.987,-1459.05)">
            <path d="M159.832,257.027L159.832,255.931L165.395,255.931L165.395,257.027L166.49,257.027L166.49,263.679L165.395,263.679L165.395,264.769L159.832,264.769L159.832,263.679L158.742,263.679L158.742,257.027L159.832,257.027ZM160.979,263.623L164.248,263.623L164.248,262.533L165.344,262.533L165.344,261.443L163.158,261.443L163.158,262.533L162.069,262.533L162.069,258.174L163.158,258.174L163.158,259.263L165.344,259.263L165.344,258.174L164.248,258.174L164.248,257.078L160.979,257.078L160.979,258.174L159.889,258.174L159.889,262.533L160.979,262.533L160.979,263.623Z" style="fill:rgb(228,186,48);"/>
            <path d="M160.979,263.623L160.979,262.533L159.889,262.533L159.889,258.174L160.979,258.174L160.979,257.078L164.248,257.078L164.248,258.174L165.344,258.174L165.344,259.263L163.158,259.263L163.158,258.174L162.069,258.174L162.069,262.533L163.158,262.533L163.158,261.443L165.344,261.443L165.344,262.533L164.248,262.533L164.248,263.623L160.979,263.623Z" style="fill:rgb(243,224,162);fill-rule:nonzero;"/>
        </g>
        <g transform="matrix(6.74863,0,0,6.74863,-868.987,-1459.05)">
            <path d="M166.377,257.027L166.377,255.931L171.94,255.931L171.94,257.027L173.035,257.027L173.035,263.679L171.94,263.679L171.94,264.769L166.377,264.769L166.377,263.679L165.287,263.679L165.287,257.027L166.377,257.027ZM167.524,263.623L170.793,263.623L170.793,262.533L171.889,262.533L171.889,261.443L169.703,261.443L169.703,262.533L168.613,262.533L168.613,260.353L171.889,260.353L171.889,258.174L170.793,258.174L170.793,257.078L167.524,257.078L167.524,258.174L166.434,258.174L166.434,262.533L167.524,262.533L167.524,263.623ZM169.703,259.263L168.613,259.263L168.613,258.174L169.703,258.174L169.703,259.263ZM169.102,258.719L169.158,258.775L169.215,258.719L169.158,258.662L169.102,258.719Z" style="fill:rgb(228,186,48);"/>
            <path d="M169.703,259.263L169.703,258.174L168.613,258.174L168.613,259.263L169.703,259.263ZM167.524,263.623L167.524,262.533L166.434,262.533L166.434,258.174L167.524,258.174L167.524,257.078L170.793,257.078L170.793,258.174L171.889,258.174L171.889,260.353L168.613,260.353L168.613,262.533L169.703,262.533L169.703,261.443L171.889,261.443L171.889,262.533L170.793,262.533L170.793,263.623L167.524,263.623Z" style="fill:rgb(243,224,162);fill-rule:nonzero;"/>
        </g>
        <g transform="matrix(6.74863,0,0,6.74863,-868.987,-1459.05)">
            <path d="M171.832,252.662L176.305,252.662L176.305,264.769L171.832,264.769L171.832,252.662ZM172.979,263.623L175.158,263.623L175.158,253.808L172.979,253.808L172.979,263.623Z" style="fill:rgb(228,186,48);"/>
            <rect x="172.979" y="253.808" width="2.18" height="9.814" style="fill:rgb(243,224,162);fill-rule:nonzero;"/>
        </g>
        <g transform="matrix(6.74863,0,0,6.74863,-868.987,-1459.05)">
            <path d="M176.192,257.027L176.192,255.931L181.754,255.931L181.754,257.027L182.85,257.027L182.85,263.679L181.754,263.679L181.754,264.769L176.192,264.769L176.192,263.679L175.102,263.679L175.102,257.027L176.192,257.027ZM177.338,263.623L180.608,263.623L180.608,262.533L181.703,262.533L181.703,258.174L180.608,258.174L180.608,257.078L177.338,257.078L177.338,258.174L176.248,258.174L176.248,262.533L177.338,262.533L177.338,263.623ZM179.518,262.533L178.428,262.533L178.428,258.174L179.518,258.174L179.518,262.533Z" style="fill:rgb(228,186,48);"/>
            <path d="M179.518,262.533L179.518,258.174L178.428,258.174L178.428,262.533L179.518,262.533ZM177.338,263.623L177.338,262.533L176.248,262.533L176.248,258.174L177.338,258.174L177.338,257.078L180.608,257.078L180.608,258.174L181.703,258.174L181.703,262.533L180.608,262.533L180.608,263.623L177.338,263.623Z" style="fill:rgb(243,224,162);fill-rule:nonzero;"/>
        </g>
        <g transform="matrix(6.74863,0,0,6.74863,-868.987,-1459.05)">
            <path d="M182.737,255.931L182.737,253.752L187.209,253.752L187.209,255.931L188.299,255.931L188.299,259.32L187.209,259.32L187.209,261.387L188.299,261.387L188.299,264.769L183.826,264.769L183.826,263.679L182.737,263.679L182.737,259.32L181.647,259.32L181.647,255.931L182.737,255.931ZM184.973,263.623L187.153,263.623L187.153,262.533L186.063,262.533L186.063,258.174L187.153,258.174L187.153,257.078L186.063,257.078L186.063,254.898L183.883,254.898L183.883,257.078L182.793,257.078L182.793,258.174L183.883,258.174L183.883,262.533L184.973,262.533L184.973,263.623Z" style="fill:rgb(228,186,48);"/>
            <path d="M184.973,263.623L184.973,262.533L183.883,262.533L183.883,258.174L182.793,258.174L182.793,257.078L183.883,257.078L183.883,254.898L186.063,254.898L186.063,257.078L187.153,257.078L187.153,258.174L186.063,258.174L186.063,262.533L187.153,262.533L187.153,263.623L184.973,263.623Z" style="fill:rgb(243,224,162);fill-rule:nonzero;"/>
        </g>
    </g>
    <g transform="matrix(3.7044,0,0,3.7044,-437.342,-1018.51)">
        <g transform="matrix(10.124,0,0,10.124,-1377.38,-2341.64)">
            <rect x="151.164" y="273.443" width="2.18" height="2.18" style="fill:rgb(243,224,162);fill-rule:nonzero;"/>
            <path d="M150.226,272.505L154.282,272.505L154.282,276.561L150.226,276.561L150.226,272.505ZM151.164,275.623L153.344,275.623L153.344,273.443L151.164,273.443L151.164,275.623Z" style="fill:rgb(228,186,48);"/>
        </g>
        <g transform="matrix(10.124,0,0,10.124,-1377.38,-2341.64)">
            <path d="M154.434,275.623L154.434,273.443L155.524,273.443L155.524,272.353L156.613,272.353L156.613,271.263L157.703,271.263L157.703,270.174L154.434,270.174L154.434,269.078L159.889,269.078L159.889,271.263L158.793,271.263L158.793,272.353L157.703,272.353L157.703,273.443L156.613,273.443L156.613,274.533L159.889,274.533L159.889,275.623L154.434,275.623Z" style="fill:rgb(243,224,162);fill-rule:nonzero;"/>
            <path d="M158.642,273.595L160.827,273.595L160.827,276.561L153.495,276.561L153.495,272.505L154.585,272.505L154.585,271.415L155.675,271.415L155.675,271.112L153.495,271.112L153.495,268.14L160.827,268.14L160.827,272.202L159.732,272.202L159.732,273.292L158.642,273.292L158.642,273.595ZM154.434,275.623L159.889,275.623L159.889,274.533L156.613,274.533L156.613,273.443L157.703,273.443L157.703,272.353L158.793,272.353L158.793,271.263L159.889,271.263L159.889,269.078L154.434,269.078L154.434,270.174L157.703,270.174L157.703,271.263L156.613,271.263L156.613,272.353L155.524,272.353L155.524,273.443L154.434,273.443L154.434,275.623Z" style="fill:rgb(228,186,48);"/>
        </g>
        <g transform="matrix(10.124,0,0,10.124,-1377.38,-2341.64)">
            <path d="M160.979,275.623L160.979,269.078L163.158,269.078L163.158,275.623L160.979,275.623ZM160.979,266.898L160.979,265.808L163.158,265.808L163.158,266.898L160.979,266.898Z" style="fill:rgb(243,224,162);fill-rule:nonzero;"/>
            <path d="M160.04,268.14L164.097,268.14L164.097,276.561L160.04,276.561L160.04,268.14ZM160.979,275.623L163.158,275.623L163.158,269.078L160.979,269.078L160.979,275.623ZM160.04,264.87L164.097,264.87L164.097,267.837L160.04,267.837L160.04,264.87ZM160.979,266.898L163.158,266.898L163.158,265.808L160.979,265.808L160.979,266.898Z" style="fill:rgb(228,186,48);"/>
        </g>
        <g transform="matrix(10.124,0,0,10.124,-1377.38,-2341.64)">
            <path d="M167.518,274.533L167.518,270.174L166.428,270.174L166.428,274.533L167.518,274.533ZM164.248,277.803L164.248,269.078L168.608,269.078L168.608,270.174L169.703,270.174L169.703,274.533L168.608,274.533L168.608,275.623L166.428,275.623L166.428,277.803L164.248,277.803Z" style="fill:rgb(243,224,162);fill-rule:nonzero;"/>
            <path d="M163.31,268.14L169.546,268.14L169.546,269.235L170.642,269.235L170.642,275.471L169.546,275.471L169.546,276.561L167.366,276.561L167.366,278.741L163.31,278.741L163.31,268.14ZM164.248,277.803L166.428,277.803L166.428,275.623L168.608,275.623L168.608,274.533L169.703,274.533L169.703,270.174L168.608,270.174L168.608,269.078L164.248,269.078L164.248,277.803ZM167.518,274.533L166.428,274.533L166.428,270.174L167.518,270.174L167.518,274.533Z" style="fill:rgb(228,186,48);"/>
        </g>
    </g>
</svg>
